Coordinates
version=1
nRows=9
nColumns=24
inDegrees=yes

Units are S.I. units (second, meters, Newtons, ...)
Angles are in degrees.

endheader
time	pelvis_tilt	pelvis_list	pelvis_rotation	pelvis_tx	pelvis_ty	pelvis_tz	hip_flexion_r	hip_adduction_r	hip_rotation_r	knee_angle_r	ankle_angle_r	subtalar_angle_r	mtp_angle_r	hip_flexion_l	hip_adduction_l	hip_rotation_l	knee_angle_l	ankle_angle_l	subtalar_angle_l	mtp_angle_l	lumbar_extension	lumbar_bending	lumbar_rotation
      5.12500000	    -11.62280334	      0.29176021	     -5.61821556	     -1.10077025	     -0.02806972	     -0.22540573	     -4.18568375	      3.27232720	      8.24821180	    -16.10036464	     25.72000337	     19.13977542	    -35.51597310	     33.98269662	     -0.82841081	     -3.43939215	     -7.48420956	     -1.69358157	     -0.37241496	      9.03426796	      8.14305921	     -0.13027789	     13.48305291
      5.13000000	    -11.68960191	      0.54976893	     -5.74297217	     -1.09414187	     -0.02892009	     -0.22585099	     -4.13162336	      2.88491772	      8.04483617	    -16.82498509	     25.68393400	     19.75768775	    -35.27400953	     34.06402714	     -0.64339477	     -3.93403238	     -8.16791278	     -2.11654158	     -0.48211289	      8.93580677	      8.37749660	     -0.40018875	     13.55770020
      5.13500000	    -11.76225009	      0.77138485	     -5.79191683	     -1.08765736	     -0.02971868	     -0.22649773	     -3.99833806	      2.50505249	      7.46241569	    -17.64804708	     25.52680783	     20.65431524	    -34.62028103	     34.16925670	     -0.43729989	     -4.23694381	     -8.83850479	     -2.73231695	     -0.83724157	      8.98588708	      8.58543827	     -0.62717896	     13.54289627
      5.14000000	    -11.87127230	      1.08301910	     -5.78703117	     -1.08107641	     -0.03041072	     -0.22708479	     -3.88800900	      2.07764049	      7.26470791	    -18.29316767	     24.39471020	     21.15464059	    -30.98488886	     34.26083951	     -0.11425895	     -4.34919901	     -9.35349336	     -3.87306706	     -1.68296912	      9.72543926	      8.86298204	     -0.98565905	     13.48246290
      5.14500000	    -11.95815874	      1.47923902	     -5.80001887	     -1.07456043	     -0.03099996	     -0.22763573	     -3.68026638	      1.52134948	      6.74041382	    -19.18734607	     24.21853830	     21.94358876	    -30.61547059	     34.40472889	      0.25527322	     -4.81471749	    -10.05709825	     -4.38364626	     -1.69978853	      9.61222607	      9.11036003	     -1.43497540	     13.47346245
      5.15000000	    -12.06685756	      1.83503304	     -5.56323789	     -1.06809205	     -0.03154606	     -0.22862163	     -3.47824431	      0.98983845	      5.96902533	    -20.00802342	     23.56244924	     22.84269523	    -28.74138993	     34.57615454	      0.78096414	     -4.62848681	    -10.72322591	     -5.25435109	     -2.37619223	      9.48578819	      9.35413886	     -1.87239256	     13.16271850
      5.15500000	    -12.16501075	      2.29119587	     -5.58506722	     -1.06169148	     -0.03180223	     -0.22913765	     -3.22973838	      0.37865252	      5.65300801	    -20.78152018	     21.91019905	     23.51551292	    -23.87331882	     34.69763867	      1.23025417	     -4.78408984	    -11.36146102	     -5.99537672	     -2.77714349	      9.25777010	      9.60519444	     -2.38752049	     13.21513923
      5.16000000	    -12.26264743	      2.74590438	     -5.37382902	     -1.05528311	     -0.03210474	     -0.22994285	     -2.94105023	     -0.27162895	      4.85334086	    -21.74652731	     21.28090998	     24.45305338	    -22.59023459	     34.88600034	      1.81650405	     -4.74340634	    -12.11060396	     -6.59900987	     -2.97489690	      9.02168570	      9.83642372	     -2.95510968	     12.96526899
      5.16500000	    -12.35392262	      3.24118266	     -5.16444216	     -1.04887097	     -0.03225900	     -0.23074951	     -2.63244767	     -0.97822187	      4.06736041	    -22.70710544	     20.23008049	     25.38364055	    -20.17976642	     35.03292890	      2.47114071	     -4.47688262	    -12.81839350	     -7.23492672	     -3.41295223	      8.42549277	     10.06448192	     -3.56349196	     12.76094633
